<?xml version="1.0" encoding="utf-8"?>
<!-- Generator: Adobe Illustrator 18.0.0, SVG Export Plug-In . SVG Version: 6.00 Build 0)  -->
<!DOCTYPE svg PUBLIC "-//W3C//DTD SVG 1.1//EN" "http://www.w3.org/Graphics/SVG/1.1/DTD/svg11.dtd">
<svg version="1.1" id="Layer_1" xmlns="http://www.w3.org/2000/svg" xmlns:xlink="http://www.w3.org/1999/xlink" x="0px" y="0px"
	 viewBox="0 0 250 250" enable-background="new 0 0 250 250" xml:space="preserve">
<path fill-rule="evenodd" clip-rule="evenodd" d="M125,248.9c-68,0-123.6-55.6-123.6-123.6C1.4,57.1,57,1.6,125,1.6
	c68.2,0,123.7,55.6,123.7,123.7C248.7,193.3,193.2,248.9,125,248.9z"/>
<path fill-rule="evenodd" clip-rule="evenodd" fill="#FEEE00" d="M11.3,163.8c-0.6-1.6-1.1-3.3-1.6-4.9h230.7
	c-0.5,1.7-1,3.3-1.6,4.9H11.3L11.3,163.8z M8.5,154C6.2,144.8,5,135.2,5,125.3C5,59.1,58.9,5,125,5c66.2,0,120.2,54,120.2,120.3
	c0,9.9-1.2,19.5-3.5,28.7H8.5z"/>
<polygon fill-rule="evenodd" clip-rule="evenodd" fill="#BF0024" points="83,89.5 125.6,151 55.8,198.7 12.6,136.9 "/>
<path fill-rule="evenodd" clip-rule="evenodd" d="M102.8,114.9l25.4,36.7l-22.1,15.1l0,0l-0.1,0l-1.5,1l-0.1,0.2l-0.1-0.1l-1.6,1.1
	v-2.4l0.4-0.3l-0.4-0.6V162l2.1,3l2.7-1.8l-4.8-6.9v-3.5l6.5,9.3l2.9-2l-9.3-13.5V143l11,15.9l2.8-1.9l-13.8-20v-3.5l15.5,22.4
	l2.8-1.9l-18.3-26.4V124l20,28.8l2.6-1.8l-22.6-32.6V114.9z M89.5,95.6l13.3,19.3v3.5L89.5,99.1V95.6L89.5,95.6z M102.8,168.9
	L89.5,178v-2.4l0.4-0.3l-0.4-0.6v-3.5l2.1,3l3-2l-5.1-7.3v-3.5l6.8,9.7l2.5-1.7L89.5,156v-3.5l10.9,15.7l2.5-1.7V168.9L102.8,168.9z
	 M102.8,124l-13.3-19.3v3.5l13.3,19.3V124L102.8,124z M102.8,133.5l-13.3-19.2v3.5l13.3,19.2V133.5L102.8,133.5z M102.8,143v3.5
	l-13.3-19.2v-3.5L102.8,143L102.8,143z M102.8,152.7l-13.3-19.3v3.5l13.3,19.3V152.7L102.8,152.7z M102.8,162l-13.3-19.2v3.5
	l13.3,19.2V162z M83.4,86.9l6,8.7v3.5L83,89.7v-2.5L83.4,86.9L83.4,86.9z M89.5,178l-6.5,4.5V180l2.7-1.8l-2.7-3.9v-3.5l4.4,6.3
	l2.2-1.5V178L89.5,178z M89.5,104.7L83,95.3v3.5l6.5,9.4V104.7L89.5,104.7z M89.5,114.2v3.5l-6.5-9.4v-3.5L89.5,114.2L89.5,114.2z
	 M89.5,123.8l-6.5-9.4v3.5l6.5,9.4V123.8L89.5,123.8z M89.5,133.4v3.5l-6.5-9.4V124L89.5,133.4L89.5,133.4z M89.5,142.8l-6.5-9.4
	v3.5l6.5,9.4V142.8L89.5,142.8z M89.5,152.4v3.5l-6.5-9.4v-3.5L89.5,152.4L89.5,152.4z M89.5,161.2l-6.5-9.4v3.5l6.5,9.4V161.2
	L89.5,161.2z M89.5,171.1l-6.5-9.4v3.5l6.5,9.4V171.1z M83,182.4l-2.4,1.6v-2.4l0.3-0.2l-0.3-0.4v-3.5l2,2.8L83,180V182.4L83,182.4z
	 M80.6,88.8l2.4-1.6v2.5l0-0.1l-2.3,1.6V88.8L80.6,88.8z M83,95.3v3.5l-2.4-3.4v-3.5L83,95.3L83,95.3z M83,104.8v3.5l-2.4-3.4v-3.5
	L83,104.8L83,104.8z M83,114.4v3.5l-2.4-3.4V111L83,114.4L83,114.4z M83,124v3.5l-2.4-3.4v-3.5L83,124L83,124z M83,133.4v3.5
	l-2.4-3.4V130L83,133.4L83,133.4z M83,143.1v3.5l-2.4-3.4v-3.5L83,143.1L83,143.1z M83,151.8v3.5l-2.4-3.4v-3.5L83,151.8L83,151.8z
	 M83,161.7v3.5l-2.4-3.4v-3.5L83,161.7L83,161.7z M83,170.7v3.5l-2.4-3.4v-3.5L83,170.7z M80.6,184l-4.5,3v-2.4l0.5-0.3l-0.5-0.7
	v-3.5l2.1,3l2.3-1.6V184L80.6,184z M76.1,91.8l4.5-3v2.4l-0.3,0.2l0.3,0.5v3.5l-2-2.9l-2.5,1.7V91.8L76.1,91.8z M80.6,101.4L76.1,95
	v3.5l4.5,6.4V101.4L80.6,101.4z M80.6,111v3.5l-4.5-6.4v-3.5L80.6,111L80.6,111z M80.6,120.6l-4.5-6.4v3.5l4.5,6.4V120.6L80.6,120.6
	z M80.6,130v3.5l-4.5-6.4v-3.5L80.6,130L80.6,130z M80.6,139.6l-4.5-6.4v3.5l4.5,6.4V139.6L80.6,139.6z M80.6,148.4v3.5l-4.5-6.4
	V142L80.6,148.4L80.6,148.4z M80.6,158.2l-4.5-6.4v3.5l4.5,6.4V158.2L80.6,158.2z M80.6,167.3v3.5l-4.5-6.4v-3.5L80.6,167.3
	L80.6,167.3z M80.6,177.4l-4.5-6.4v3.5l4.5,6.4V177.4z M76.1,187.1l-4.4,3v-2.4l0.5-0.3l-0.5-0.7v-3.5l2.2,3.1l2.3-1.5V187.1
	L76.1,187.1z M71.7,94.8l4.4-3v2.4l-0.4,0.2l0.4,0.5v3.5l-2-2.9l-2.4,1.6V94.8L71.7,94.8z M76.1,104.6l-4.4-6.3v3.5l4.4,6.3V104.6
	L76.1,104.6z M76.1,114.1v3.5l-4.4-6.4v-3.5L76.1,114.1L76.1,114.1z M76.1,123.6l-4.4-6.3v3.5l4.4,6.3V123.6L76.1,123.6z
	 M76.1,133.2v3.5l-4.4-6.3v-3.5L76.1,133.2L76.1,133.2z M76.1,142l-4.4-6.3v3.5l4.4,6.3V142L76.1,142z M76.1,151.8v3.5l-4.4-6.4
	v-3.5L76.1,151.8L76.1,151.8z M76.1,160.9l-4.4-6.3v3.5l4.4,6.3V160.9L76.1,160.9z M76.1,171v3.5l-4.4-6.3v-3.5L76.1,171L76.1,171z
	 M76.1,180.1l-4.4-6.3v3.5l4.4,6.3V180.1z M71.7,190.1l-4.5,3v-2.4l0.5-0.4l-0.5-0.8V186l2.2,3.2l2.2-1.5V190.1L71.7,190.1z
	 M67.3,97.8l4.5-3v2.4l-0.5,0.3l0.5,0.7v3.5l-2.2-3.1l-2.3,1.5V97.8L67.3,97.8z M71.7,107.8l-4.5-6.4v3.5l4.5,6.4V107.8L71.7,107.8z
	 M71.7,117.3v3.5l-4.5-6.4v-3.5L71.7,117.3L71.7,117.3z M71.7,126.9l-4.5-6.4v3.5l4.5,6.4V126.9L71.7,126.9z M71.7,135.6v3.5
	l-4.5-6.4v-3.5L71.7,135.6L71.7,135.6z M71.7,145.5l-4.5-6.4v3.5l4.5,6.4V145.5L71.7,145.5z M71.7,154.5v3.5l-4.5-6.4v-3.5
	L71.7,154.5L71.7,154.5z M71.7,164.6v3.5l-4.5-6.4v-3.5L71.7,164.6L71.7,164.6z M71.7,173.8l-4.5-6.4v3.5l4.5,6.4V173.8L71.7,173.8z
	 M71.7,183.1l-4.5-6.4v3.5l4.5,6.4V183.1z M67.3,193.1l-4.4,3v-2.4l0.6-0.4l-0.6-0.9v-3.5l2.3,3.3l2.1-1.4V193.1L67.3,193.1z
	 M62.9,100.8l4.4-3v2.4l-0.5,0.4l0.5,0.8v3.5l-2.2-3.2l-2.2,1.5V100.8L62.9,100.8z M67.3,110.9l-4.4-6.3v3.5l4.4,6.3V110.9
	L67.3,110.9z M67.3,120.5v3.5l-4.4-6.4v-3.5L67.3,120.5L67.3,120.5z M67.3,129.2l-4.4-6.4v3.5l4.4,6.4V129.2L67.3,129.2z M67.3,139
	v3.5l-4.4-6.4v-3.5L67.3,139L67.3,139z M67.3,148.1l-4.4-6.4v3.5l4.4,6.4V148.1L67.3,148.1z M67.3,158.2v3.5l-4.4-6.4v-3.5
	L67.3,158.2L67.3,158.2z M67.3,167.4l-4.4-6.4v3.5l4.4,6.4V167.4L67.3,167.4z M67.3,176.7v3.5l-4.4-6.4v-3.5L67.3,176.7L67.3,176.7z
	 M67.3,186l-4.4-6.4v3.5l4.4,6.4V186z M62.9,196.1l-4.4,3v-2.4l0.8-0.5l-0.8-1.1v-3.5l2.4,3.5l2-1.4V196.1L62.9,196.1z M58.4,103.7
	l4.4-3v2.4l-0.6,0.4l0.6,0.9v3.5l-2.3-3.3l-2.1,1.4V103.7L58.4,103.7z M62.9,114.1l-4.4-6.3v3.5l4.4,6.4V114.1L62.9,114.1z
	 M62.9,122.8v3.5l-4.4-6.4v-3.5L62.9,122.8L62.9,122.8z M62.9,132.7l-4.4-6.4v3.5l4.4,6.4V132.7L62.9,132.7z M62.9,141.7v3.5
	l-4.4-6.4v-3.5L62.9,141.7L62.9,141.7z M62.9,151.9v3.5l-4.4-6.4v-3.5L62.9,151.9L62.9,151.9z M62.9,161l-4.4-6.4v3.5l4.4,6.4V161
	L62.9,161z M62.9,170.3v3.5l-4.4-6.4V164L62.9,170.3L62.9,170.3z M62.9,179.6l-4.4-6.4v3.5l4.4,6.4V179.6L62.9,179.6z M62.9,188.8
	l-4.4-6.3v3.5l4.4,6.3V188.8z M58.4,199.2l-3.1,2.1l-5.8-8.3v-3.5l6.3,9l2.6-1.8V199.2L58.4,199.2z M49.5,109.8l9-6v2.4l-0.8,0.5
	l0.8,1.1v3.5l-2.4-3.5l-2.4,1.6l4.9,7v3.5l-6.6-9.4l-2.4,1.6V109.8L49.5,109.8z M58.4,126.3l-9-12.9v3.5l9,12.9V126.3L58.4,126.3z
	 M58.4,135.4v3.5l-9-12.9v-3.5L58.4,135.4L58.4,135.4z M58.4,145.5l-9-12.9v3.5l9,12.9V145.5L58.4,145.5z M58.4,154.7v3.5l-9-12.9
	v-3.5L58.4,154.7L58.4,154.7z M58.4,164l-9-12.9v3.5l9,12.9V164L58.4,164z M58.4,173.3v3.5l-9-12.9v-3.5L58.4,173.3L58.4,173.3z
	 M58.4,182.5l-9-12.9v3.5l9,12.9V182.5L58.4,182.5z M58.4,191.6l-9-12.9v3.5l9,12.9V191.6z M49.5,193L9.9,136.4l39.5-26.7v2.4
	l-0.6,0.4l0.6,0.8v3.5l-2.2-3.2l-2.6,1.8l4.9,7v3.5l-6.5-9.4l-3.1,2.1l9.7,13.9v3.5l-11.3-16.3l-2.7,1.8l14,20.1v3.5l-15.7-22.5
	l-2.7,1.9l18.4,26.5v3.5l-20.1-28.9l-2.7,1.8l22.7,32.8v3.5l-24.4-35.2l-2.8,1.9l27.2,39.1v3.5l-28.8-41.5l-2.7,1.8l31.5,45.3v3.5
	l-33.2-47.6l-3.5,2.4l36.7,52.5V193z"/>
<path fill-rule="evenodd" clip-rule="evenodd" d="M74.6,148.1c5.9-1.9,11.5-5.3,16.7-10.9c10.2-14.4,10-24.6-0.8-30.1
	c-4.8-2.2-10.2-3.2-15.9-3.2v5.2c8.1-0.6,15.2,3.5,14.8,10.4c-0.3,9.2-5.8,17.5-14.8,21.9V148.1z M45.3,180c3.9-10.2,8.1-20,12-30.2
	c6.1,0.4,11.9,0,17.3-1.7v-6.7c-4.2,2.1-9.2,3.2-14.8,3.2c4.5-11.8,8.8-23.5,13.3-35.3c0.5-0.1,1-0.1,1.5-0.2v-5.2
	c-1.3,0-2.6,0.1-3.8,0.2l-33.6,64.3L45.3,180z"/>
<path fill-rule="evenodd" clip-rule="evenodd" d="M219.1,125.6c2.8-3.2,6.8-1.8,5.9,1.6c-1.5,5.4-3.9,9.7-6.6,13.4v4.1l0,0
	c-0.2,4.7,5.4,4.6,9.1,2.9c4.3-1.9,6.4-3.5,8.9-6.9c-0.7-0.3-1.4-1.1-2-1.5c-0.9,2-3.1,2.8-5.3,3.9c-3.7,0.8-4.6-1.5-3.3-4.2
	c3-6.2,6-12.6,9-18.9c-2.1,0-4.1,0-6.1,0c-0.4,0.9-0.8,1.8-1.2,2.6c-2.6-3.2-5.7-3.1-9-1.5v5.4C218.6,126.2,218.8,125.9,219.1,125.6
	L219.1,125.6z M218.4,95v-5.4c1,0.6,1,2.3,0.2,5C218.5,94.7,218.4,94.9,218.4,95z M218.4,140.6c-0.3,0.5-0.7,0.9-1,1.3
	c-1.9,1.7-5.5,2.9-5.7-1.2c0.1-4.4,2.8-9.4,6.7-14.2v-5.4c-0.3,0.1-0.5,0.3-0.8,0.4c-1,0.7-1.9,1.4-2.7,2.1c0.2-0.3,0.4-0.6,0.3-1
	c-2.2,1.1-4.9,1.3-6.9,1.3v2.9c1.6-0.1,3-0.4,4-0.7c0.6-1.2,1.5-1.7,2.1-2.1c-1.1,0.9-2,1.9-2.7,2.9c-1.3,1.8-2.5,3.6-3.4,5.3v16
	c3,1.3,7.2-0.6,10.1-3.5V140.6L218.4,140.6z M218.4,89.6V95c-1.7,3.5-5.4,7.4-10.1,10.8v-3.7c1.8-1.5,3.6-3.3,5.4-5.4
	c2.5-3.8,1.2-3.8-2.1-1.9c-1.2,1-2.3,2-3.3,3v-4.2c1.6-1.4,3.2-2.5,4.7-3.1C215.8,89.3,217.5,89.1,218.4,89.6z M208.3,93.5v4.2
	c-3,2.8-5.2,5.6-6.7,8.4c2.3-0.9,4.5-2.2,6.7-4v3.7c-3,2.1-6.5,4-10.2,5.5c-3.1,1.8-8.5,17.1-10,25.2c-0.6,10.1,6,6.3,9.5,1.9
	c0.6,0,6.3-10.3,4.5-12.4c-0.7,0.4-3.5,0-5.4-2c-2.1-2.6-0.5-7.4,4.1-5.2c2.1,0.9,2.5,1.6,5,5.3c-0.1-0.3,0.9-0.3,2.4-0.3v2.9
	c-0.9,0.1-1.9,0.1-3,0.1c0.1,3.1-4.7,13.7-9.5,17.7c-3.7,4-9.1,4.9-12.2,3v-17.3c2.1-5.8,5.4-13.3,8.9-18.4c0.1-0.5-1.5-0.7-3.1-0.7
	l1.7-4.7c1.8,0.7,3.1,1,4.8,0.7C195.6,107.9,201.9,98.8,208.3,93.5L208.3,93.5z M208.3,132.2c-2.5,4.6-3.5,8.5-3.1,11.9
	c0.6,2.2,1.7,3.5,3.1,4.1V132.2L208.3,132.2z M183.6,116.3c2.2-0.9,3.9-2.3,5-4.2c-1.6,0-3.2,0-4.8,0c-0.1,0.2-0.1,0.4-0.2,0.6
	V116.3z M183.6,112.7v3.6c-1.4,0.6-3.1,0.9-5,1.1C181.1,116,182.8,114.4,183.6,112.7L183.6,112.7z M183.6,130.4v17.3
	c-1.8-1.1-2.9-3.2-2.5-6.2c-4.9,6.1-15,10.6-15.8,3.1c-1.1,0.8-2.8,2.2-4.5,3.3c-3.3,1.5-6.4,1.2-7.3-3.2l-0.1,0.1v-4.2
	c2.7-3.7,5.1-8,6.6-13.4c0.9-3.4-3.1-4.3-5.9-1.6c-0.2,0.3-0.5,0.6-0.7,0.8v-5.3c3.3-1.6,6.5-1.7,9.1,1.5c0.3-0.8,0.7-1.7,1.2-2.6
	c2,0,4,0,6.1,0c-3,6.4-6.4,13.5-9.4,19.7c-0.9,2.3,1.3,4.5,4.9,1.2c2.8-2.9,8.3-15.2,11.2-21l6.1,0.1c0.3,0.2-6.5,13.3-9.9,19.7
	c-2.1,4.4,3.6,4.3,8.7-1C180.9,138.5,181.9,135,183.6,130.4z M153.3,121.2v5.3c-4,4.9-6.6,9.9-6.7,14.3c0.8,4.3,3.3,3,5.7,1.2
	c0.4-0.4,0.7-0.9,1-1.3v4.2c-5.2,3.9-9.6,5.4-12.1,1.5l-1.1-2.2c0,0,0-0.1,0-0.1c-2.4,3.1-7.2,6.9-10.9,3.3c-1.4-1.3-1.1-5.5,0-7.3
	c0-2.4,8.7-15.1,8.8-14.9c-1.7,0.7-5.6,0.1-5.8,0.1c-2.4,4.5-8.8,15.4-9.3,16.1c-1.4,2.3-2.7,4.4-5.2,6c-2.6,2.3-7.3,1.6-8.1-2.8
	l-0.3,0.2v-4.7c1.1-1.2,2.1-2.8,3.2-4.5c3.1-5.3,4.5-10.6,2.6-11.8c-1.3-0.7-3.5,0.5-5.7,2.9v-5.6c3.4-1.7,6.6-1.9,9.3,1.4
	c0.3-0.8,0.7-1.7,1.2-2.6c2,0,4,0,6.1,0c-3,6.4-5.9,12.7-8.9,18.9c-0.9,2.3,1.1,3.7,2.6,2.5c1-0.7,1.8-1.9,2.1-2.3
	c1-1.2,7.5-12,8.1-15.7c-3.9-1.4-3.2-5.9-1.1-7.2c4.4-2.3,6.1,2.5,5,4.6c2.2,1.6,11.2-0.2,12.3-1.6c0.7-0.2,0.7-0.4,0.9,0.5
	c-5,2.9-12.8,18.2-12.5,21.2c0.3,3.1,3.1,2.5,5.7,0c0.4-4,2.3-8.7,6.2-14.1c1.4-1.8,3.5-3.7,6.3-5.4
	C152.8,121.4,153,121.3,153.3,121.2z M109.3,121.3v5.6c-1.2,1.3-2.4,2.9-3.4,4.7c-3.1,5.4-4.1,10.6-2.1,11.7
	c1.3,0.8,3.4-0.5,5.6-3.1v4.7c-5.2,3.8-9.6,5.3-12.1,1.5c-0.2,0.9-1.2-2.3-1-2.2c-0.9-4.7,1.2-10.1,6.2-16.9
	c1.4-1.8,3.8-3.9,6.4-5.7C108.9,121.5,109.1,121.4,109.3,121.3z"/>
<path fill-rule="evenodd" clip-rule="evenodd" d="M149.1,64.1v-4.5h2.2v-8.4c0-1.5-0.1-1.7-1.5-1.7h-0.7v-5.2h2.2
	c3.1,0,5.2,0,5.2,5.2v25.9h-5.2V64.1H149.1L149.1,64.1z M197,75.4h-4.9V44.3h5.1l4.2,13.1l4.4-13.1h4.9v31.1h-4.9V57.8l-4.6,12.8
	L197,57.8V75.4L197,75.4z M159.1,44.3H174v4.6l-9.3,21.9h9.3v4.5h-14.9v-3.3l9.4-22.6h-9.4V44.3L159.1,44.3z M189.7,44.3v5.2h-8v7
	h4.9v5h-4.9v9.3h8v4.5h-13.1V44.3H189.7L189.7,44.3z M186.3,38.3c1.2,0,2.7,0,3.9,0c-1.2,3.3-3.9,5.1-7.1,5.4
	C185.5,41.9,186.3,40.2,186.3,38.3z M149.1,44.3v5.2h-1c-1.2,0-1.2,0.2-1.2,1.7c0,2.6,0,5.3,0,8.4h2.2v4.5H147v11.3h-5
	c0-8.6,0-17.4,0-25.9c0-5.2,2.7-5.2,5-5.2H149.1L149.1,44.3z M109.1,66.9v-7.3h1c1.3,0.2,1.3-0.3,1.3-1.3v-6.9c0-1.5,0-1.9-1.4-1.9
	l-0.9,0.1v-5.2h2.3c2.7,0,4.9,0,4.9,5.2v10.3c0.4,2.7-0.6,4.4-3,4.4l4,11.1H112L109.1,66.9L109.1,66.9z M124.8,75.4H120V44.3h4.9
	l4.2,13.1l4.2-13.1h4.9v31.1h-4.9V57.8l-4.2,12.8l-4.4-12.8V75.4z M90.5,44.3h2.4c2.8,0,4.9,0,4.9,5.2v25.9h-4.9V64.1h-2.4v-4.5h2.4
	v-8.4c0-1.5,0-1.7-1.6-1.7h-0.8V44.3L90.5,44.3z M109.1,44.3v5.2l-2.3,0.2c0,2.8,0,6.8,0,9.9h2.3v7.3l-1-2.8h-1.4v11.3h-4.7V44.3
	H109.1z M83.3,75.4c0-8.6,0-17.4,0-25.9c0-5.2,2.5-5.2,4.9-5.2h2.4v5.2h-0.8c-1.2,0-1.6,0.2-1.6,1.7c0,2.6,0,5.3,0,8.4h2.4v4.5h-2.4
	v11.3H83.3z"/>
</svg>
